<?xml version="1.0" encoding="UTF-8" standalone="no"?>
<!DOCTYPE svg PUBLIC "-//W3C//DTD SVG 1.1//EN" "http://www.w3.org/Graphics/SVG/1.1/DTD/svg11.dtd">
<svg width="100%" height="100%" viewBox="0 0 1000 698" version="1.1" xmlns="http://www.w3.org/2000/svg" xmlns:xlink="http://www.w3.org/1999/xlink" xml:space="preserve" xmlns:serif="http://www.serif.com/" style="fill-rule:evenodd;clip-rule:evenodd;stroke-linejoin:round;stroke-miterlimit:2;">
    <g transform="matrix(1,0,0,1,-0.367315,-151.248304)">
        <g id="_Image1_" serif:id="_Image1" transform="matrix(3.661804,0,0,3.661804,-1326.258893,-1411.052859)">
            <path d="M403.983,526.213C404.87,526.191 404.895,526.466 405.59,525.804C422.066,510.11 449.424,508.648 453.495,508.431C458.533,508.162 454.124,501.629 467.406,495.282C470.725,493.696 488.359,491.62 489.132,495.535C489.594,497.875 489.223,535.061 489.188,538.498C489.157,541.6 488.67,541.993 485.511,542.047C466.34,542.375 461.506,539.199 456.177,528.678C453.962,524.305 404.469,526.265 391.32,590.462C387.404,609.586 389.05,609.715 388.217,615.433C388.091,616.293 387.84,617.267 366.472,616.918C364.571,616.887 362.871,616.484 362.355,593.503C359.462,464.603 450.29,413.615 529.512,429.441C564.096,436.351 601.425,465.165 579.68,453.081C495.726,406.43 409.862,499.276 403.983,526.213Z" style="fill:rgb(58,120,169);"/>
            <path d="M487.389,455.255C487.904,455.048 538.329,429.099 590.186,464.947C643.238,501.62 636.466,615.528 632.617,616.779C630.479,617.475 602.124,616.926 599.473,616.875C593.569,616.761 601.858,594.962 582.32,558.604C566.789,529.702 531.038,524.867 528.795,528.684C522.659,539.122 519.695,541.135 498.493,540.565C495.249,540.478 496.002,533.995 496.121,527.475C496.187,523.871 503.543,525.314 504.141,525.925C516.615,538.688 526.777,505.656 507.474,506.119C503.855,506.206 504.765,510.248 497.547,509.309C495.436,509.034 496.065,500.584 496.114,496.485C496.158,492.774 503.817,493.81 508.492,493.925C529.573,494.445 525.741,508.02 531.509,508.379C538.063,508.787 583.299,511.603 600.851,552.301C607.494,567.704 600.73,540.498 600.483,539.504C581.71,463.999 510.219,450.356 471.563,465.817C440.266,478.335 486.022,455.925 487.389,455.255Z" style="fill:rgb(120,17,15);"/>
        </g>
    </g>
</svg>
